<svg width="247" height="247" viewBox="0 0 247 247" fill="none" xmlns="http://www.w3.org/2000/svg">
<path d="M48.7 60.1989C30.4333 78.3726 30.4333 107.838 48.7 126.012L123.5 200.431L198.3 126.012C216.567 107.838 216.567 78.3726 198.3 60.1989C180.033 42.0252 150.417 42.0252 132.15 60.1989L123.5 68.8051L114.849 60.1989C96.5829 42.0252 66.9667 42.0252 48.7 60.1989Z" fill="#FF174F"/>
<path d="M56.327 78.8638C56.327 78.8638 65.015 59.3933 87.118 61.7116C97.1953 63.3521 92.6374 73.2534 85.2355 72.81C77.0688 73.8882 68.0542 76.554 63.0088 82.0113C57.9634 87.4686 53.3071 83.7525 56.327 78.8638Z" fill="white"/>
<path d="M53.1133 90.6093C54.2563 90.9461 54.5656 93.44 54.447 95.0155C54.1278 99.1308 50.378 103.085 48.9342 102.497C47.2608 101.819 47.7936 94.6999 51.1337 91.5467C51.535 91.1627 52.3716 90.3902 53.1133 90.6093Z" fill="white"/>
</svg>
