<svg version="1.1" xmlns="http://www.w3.org/2000/svg" xmlns:xlink="http://www.w3.org/1999/xlink" style="" xml:space="preserve" width="508" height="508"><rect id="backgroundrect" width="100%" height="100%" x="0" y="0" fill="none" stroke="none"/>




















<g class="currentLayer" style=""><title>Layer 1</title><path style="fill:#FF7058;" d="M98,254c0-86,70-156,156-156c43.2,0,82,17.6,110.4,45.6l28.4-28.4C357.2,80,308,58,254,58  C145.6,58,58,145.6,58,254H34l44,44l44-44H98z" id="svg_3"/><path style="fill:#FFD05B;" d="M430,210l-44,44h24c0,86-70,156-156,156c-43.2,0-82-17.6-110.4-45.6l-28.4,28.4  C150.8,428,200,450,254,450c108.4,0,196-87.6,196-196h24L430,210z" id="svg_4"/><g id="svg_6">
</g><g id="svg_7">
</g><g id="svg_8">
</g><g id="svg_9">
</g><g id="svg_10">
</g><g id="svg_11">
</g><g id="svg_12">
</g><g id="svg_13">
</g><g id="svg_14">
</g><g id="svg_15">
</g><g id="svg_16">
</g><g id="svg_17">
</g><g id="svg_18">
</g><g id="svg_19">
</g><g id="svg_20">
</g></g></svg>